<mxfile host="Electron" modified="2024-05-24T14:55:22.365Z" agent="Mozilla/5.0 (Macintosh; Intel Mac OS X 10_15_7) AppleWebKit/537.36 (KHTML, like Gecko) draw.io/22.1.2 Chrome/114.0.5735.289 Electron/25.9.4 Safari/537.36" etag="0TCSjEodAMBabXRi6Q2K" version="22.1.2" type="device">
  <diagram id="C5RBs43oDa-KdzZeNtuy" name="Page-1">
    <mxGraphModel dx="1037" dy="607" grid="1" gridSize="10" guides="1" tooltips="1" connect="1" arrows="1" fold="1" page="1" pageScale="1" pageWidth="1920" pageHeight="1200" math="0" shadow="0">
      <root>
        <mxCell id="WIyWlLk6GJQsqaUBKTNV-0" />
        <mxCell id="WIyWlLk6GJQsqaUBKTNV-1" parent="WIyWlLk6GJQsqaUBKTNV-0" />
        <mxCell id="WR40mjgjieXG-nKHjIMm-53" value="" style="edgeStyle=orthogonalEdgeStyle;rounded=0;orthogonalLoop=1;jettySize=auto;html=1;" edge="1" parent="WIyWlLk6GJQsqaUBKTNV-1" source="WR40mjgjieXG-nKHjIMm-35" target="WR40mjgjieXG-nKHjIMm-36">
          <mxGeometry relative="1" as="geometry" />
        </mxCell>
        <mxCell id="WR40mjgjieXG-nKHjIMm-35" value="&lt;p style=&quot;line-height: 50%;&quot;&gt;&lt;font style=&quot;font-size: 6px;&quot;&gt;&lt;font face=&quot;Verdana&quot;&gt;11111111&lt;br&gt;00000001&lt;br&gt;00000001&lt;br&gt;00010001&lt;br&gt;00010001&lt;br&gt;00010000&lt;br&gt;00010000&lt;br&gt;11111111&lt;/font&gt;&lt;br&gt;&lt;/font&gt;&lt;/p&gt;" style="whiteSpace=wrap;html=1;aspect=fixed;" vertex="1" parent="WIyWlLk6GJQsqaUBKTNV-1">
          <mxGeometry x="470" y="355" width="80" height="80" as="geometry" />
        </mxCell>
        <mxCell id="WR40mjgjieXG-nKHjIMm-54" value="" style="edgeStyle=orthogonalEdgeStyle;rounded=0;orthogonalLoop=1;jettySize=auto;html=1;" edge="1" parent="WIyWlLk6GJQsqaUBKTNV-1" source="WR40mjgjieXG-nKHjIMm-36" target="WR40mjgjieXG-nKHjIMm-37">
          <mxGeometry relative="1" as="geometry" />
        </mxCell>
        <mxCell id="WR40mjgjieXG-nKHjIMm-36" value="&lt;p style=&quot;line-height: 50%;&quot;&gt;&lt;font style=&quot;font-size: 6px;&quot;&gt;&lt;font face=&quot;Verdana&quot;&gt;00000111&lt;br&gt;00000100&lt;br&gt;00000100&lt;br&gt;00011100&lt;br&gt;00110000&lt;br&gt;00100000&lt;br&gt;11100000&lt;br&gt;10000000&lt;/font&gt;&lt;br&gt;&lt;/font&gt;&lt;/p&gt;" style="whiteSpace=wrap;html=1;aspect=fixed;" vertex="1" parent="WIyWlLk6GJQsqaUBKTNV-1">
          <mxGeometry x="590" y="355" width="80" height="80" as="geometry" />
        </mxCell>
        <mxCell id="WR40mjgjieXG-nKHjIMm-55" value="" style="edgeStyle=orthogonalEdgeStyle;rounded=0;orthogonalLoop=1;jettySize=auto;html=1;" edge="1" parent="WIyWlLk6GJQsqaUBKTNV-1" source="WR40mjgjieXG-nKHjIMm-37" target="WR40mjgjieXG-nKHjIMm-38">
          <mxGeometry relative="1" as="geometry" />
        </mxCell>
        <mxCell id="WR40mjgjieXG-nKHjIMm-72" style="edgeStyle=orthogonalEdgeStyle;rounded=0;orthogonalLoop=1;jettySize=auto;html=1;entryX=0.5;entryY=0;entryDx=0;entryDy=0;" edge="1" parent="WIyWlLk6GJQsqaUBKTNV-1" source="WR40mjgjieXG-nKHjIMm-37" target="WR40mjgjieXG-nKHjIMm-35">
          <mxGeometry relative="1" as="geometry">
            <mxPoint x="720" y="285" as="targetPoint" />
            <Array as="points">
              <mxPoint x="750" y="325" />
              <mxPoint x="510" y="325" />
            </Array>
          </mxGeometry>
        </mxCell>
        <mxCell id="WR40mjgjieXG-nKHjIMm-37" value="&lt;p style=&quot;line-height: 50%;&quot;&gt;&lt;font style=&quot;font-size: 6px;&quot;&gt;&lt;font face=&quot;Verdana&quot;&gt;00000111&lt;br&gt;00000100&lt;br&gt;00000100&lt;br&gt;00011100&lt;br&gt;00110000&lt;br&gt;00100000&lt;br&gt;11100000&lt;br&gt;00000000&lt;/font&gt;&lt;br&gt;&lt;/font&gt;&lt;/p&gt;" style="whiteSpace=wrap;html=1;aspect=fixed;" vertex="1" parent="WIyWlLk6GJQsqaUBKTNV-1">
          <mxGeometry x="710" y="355" width="80" height="80" as="geometry" />
        </mxCell>
        <mxCell id="WR40mjgjieXG-nKHjIMm-56" value="" style="edgeStyle=orthogonalEdgeStyle;rounded=0;orthogonalLoop=1;jettySize=auto;html=1;" edge="1" parent="WIyWlLk6GJQsqaUBKTNV-1" source="WR40mjgjieXG-nKHjIMm-38" target="WR40mjgjieXG-nKHjIMm-39">
          <mxGeometry relative="1" as="geometry" />
        </mxCell>
        <mxCell id="WR40mjgjieXG-nKHjIMm-73" style="edgeStyle=orthogonalEdgeStyle;rounded=0;orthogonalLoop=1;jettySize=auto;html=1;exitX=0.5;exitY=0;exitDx=0;exitDy=0;entryX=0.5;entryY=0;entryDx=0;entryDy=0;" edge="1" parent="WIyWlLk6GJQsqaUBKTNV-1" source="WR40mjgjieXG-nKHjIMm-38" target="WR40mjgjieXG-nKHjIMm-35">
          <mxGeometry relative="1" as="geometry">
            <Array as="points">
              <mxPoint x="870" y="325" />
              <mxPoint x="510" y="325" />
            </Array>
          </mxGeometry>
        </mxCell>
        <mxCell id="WR40mjgjieXG-nKHjIMm-38" value="&lt;p style=&quot;line-height: 50%;&quot;&gt;&lt;font style=&quot;font-size: 6px;&quot;&gt;&lt;font face=&quot;Verdana&quot;&gt;00000111&lt;br&gt;00000100&lt;br&gt;00000100&lt;br&gt;00011100&lt;br&gt;00110000&lt;br&gt;00100000&lt;br&gt;01100000&lt;br&gt;00000000&lt;/font&gt;&lt;br&gt;&lt;/font&gt;&lt;/p&gt;" style="whiteSpace=wrap;html=1;aspect=fixed;" vertex="1" parent="WIyWlLk6GJQsqaUBKTNV-1">
          <mxGeometry x="830" y="355" width="80" height="80" as="geometry" />
        </mxCell>
        <mxCell id="WR40mjgjieXG-nKHjIMm-58" value="" style="edgeStyle=orthogonalEdgeStyle;rounded=0;orthogonalLoop=1;jettySize=auto;html=1;" edge="1" parent="WIyWlLk6GJQsqaUBKTNV-1" source="WR40mjgjieXG-nKHjIMm-39" target="WR40mjgjieXG-nKHjIMm-40">
          <mxGeometry relative="1" as="geometry" />
        </mxCell>
        <mxCell id="WR40mjgjieXG-nKHjIMm-74" style="edgeStyle=orthogonalEdgeStyle;rounded=0;orthogonalLoop=1;jettySize=auto;html=1;exitX=0.5;exitY=0;exitDx=0;exitDy=0;entryX=0.5;entryY=0;entryDx=0;entryDy=0;" edge="1" parent="WIyWlLk6GJQsqaUBKTNV-1" source="WR40mjgjieXG-nKHjIMm-39" target="WR40mjgjieXG-nKHjIMm-35">
          <mxGeometry relative="1" as="geometry">
            <Array as="points">
              <mxPoint x="990" y="325" />
              <mxPoint x="510" y="325" />
            </Array>
          </mxGeometry>
        </mxCell>
        <mxCell id="WR40mjgjieXG-nKHjIMm-39" value="&lt;p style=&quot;line-height: 50%;&quot;&gt;&lt;font style=&quot;font-size: 6px;&quot;&gt;&lt;font face=&quot;Verdana&quot;&gt;00000111&lt;br&gt;00000100&lt;br&gt;00000100&lt;br&gt;00011100&lt;br&gt;00110000&lt;br&gt;00100000&lt;br&gt;00100000&lt;br&gt;00000000&lt;/font&gt;&lt;br&gt;&lt;/font&gt;&lt;/p&gt;" style="whiteSpace=wrap;html=1;aspect=fixed;" vertex="1" parent="WIyWlLk6GJQsqaUBKTNV-1">
          <mxGeometry x="950" y="355" width="80" height="80" as="geometry" />
        </mxCell>
        <mxCell id="WR40mjgjieXG-nKHjIMm-59" value="" style="edgeStyle=orthogonalEdgeStyle;rounded=0;orthogonalLoop=1;jettySize=auto;html=1;" edge="1" parent="WIyWlLk6GJQsqaUBKTNV-1" source="WR40mjgjieXG-nKHjIMm-40" target="WR40mjgjieXG-nKHjIMm-41">
          <mxGeometry relative="1" as="geometry" />
        </mxCell>
        <mxCell id="WR40mjgjieXG-nKHjIMm-75" style="edgeStyle=orthogonalEdgeStyle;rounded=0;orthogonalLoop=1;jettySize=auto;html=1;exitX=0.5;exitY=0;exitDx=0;exitDy=0;" edge="1" parent="WIyWlLk6GJQsqaUBKTNV-1" source="WR40mjgjieXG-nKHjIMm-40">
          <mxGeometry relative="1" as="geometry">
            <mxPoint x="510" y="355" as="targetPoint" />
            <Array as="points">
              <mxPoint x="1110" y="325" />
              <mxPoint x="510" y="325" />
            </Array>
          </mxGeometry>
        </mxCell>
        <mxCell id="WR40mjgjieXG-nKHjIMm-40" value="&lt;p style=&quot;line-height: 50%;&quot;&gt;&lt;font style=&quot;font-size: 6px;&quot;&gt;&lt;font face=&quot;Verdana&quot;&gt;00000111&lt;br&gt;00000100&lt;br&gt;00000100&lt;br&gt;00011100&lt;br&gt;00110000&lt;br&gt;00100000&lt;br&gt;00000000&lt;br&gt;00000000&lt;/font&gt;&lt;br&gt;&lt;/font&gt;&lt;/p&gt;" style="whiteSpace=wrap;html=1;aspect=fixed;" vertex="1" parent="WIyWlLk6GJQsqaUBKTNV-1">
          <mxGeometry x="1070" y="355" width="80" height="80" as="geometry" />
        </mxCell>
        <mxCell id="WR40mjgjieXG-nKHjIMm-60" value="" style="edgeStyle=orthogonalEdgeStyle;rounded=0;orthogonalLoop=1;jettySize=auto;html=1;" edge="1" parent="WIyWlLk6GJQsqaUBKTNV-1" source="WR40mjgjieXG-nKHjIMm-41" target="WR40mjgjieXG-nKHjIMm-42">
          <mxGeometry relative="1" as="geometry" />
        </mxCell>
        <mxCell id="WR40mjgjieXG-nKHjIMm-76" style="edgeStyle=orthogonalEdgeStyle;rounded=0;orthogonalLoop=1;jettySize=auto;html=1;exitX=0.5;exitY=0;exitDx=0;exitDy=0;entryX=0.5;entryY=0;entryDx=0;entryDy=0;" edge="1" parent="WIyWlLk6GJQsqaUBKTNV-1" source="WR40mjgjieXG-nKHjIMm-41" target="WR40mjgjieXG-nKHjIMm-35">
          <mxGeometry relative="1" as="geometry">
            <Array as="points">
              <mxPoint x="1230" y="325" />
              <mxPoint x="510" y="325" />
            </Array>
          </mxGeometry>
        </mxCell>
        <mxCell id="WR40mjgjieXG-nKHjIMm-41" value="&lt;p style=&quot;line-height: 50%;&quot;&gt;&lt;font style=&quot;font-size: 6px;&quot;&gt;&lt;font face=&quot;Verdana&quot;&gt;00000111&lt;br&gt;00000100&lt;br&gt;00000100&lt;br&gt;00011100&lt;br&gt;00110000&lt;br&gt;00000000&lt;br&gt;00000000&lt;br&gt;00000000&lt;/font&gt;&lt;br&gt;&lt;/font&gt;&lt;/p&gt;" style="whiteSpace=wrap;html=1;aspect=fixed;" vertex="1" parent="WIyWlLk6GJQsqaUBKTNV-1">
          <mxGeometry x="1190" y="355" width="80" height="80" as="geometry" />
        </mxCell>
        <mxCell id="WR40mjgjieXG-nKHjIMm-61" value="" style="edgeStyle=orthogonalEdgeStyle;rounded=0;orthogonalLoop=1;jettySize=auto;html=1;" edge="1" parent="WIyWlLk6GJQsqaUBKTNV-1" source="WR40mjgjieXG-nKHjIMm-42" target="WR40mjgjieXG-nKHjIMm-43">
          <mxGeometry relative="1" as="geometry" />
        </mxCell>
        <mxCell id="WR40mjgjieXG-nKHjIMm-77" style="edgeStyle=orthogonalEdgeStyle;rounded=0;orthogonalLoop=1;jettySize=auto;html=1;exitX=0.5;exitY=0;exitDx=0;exitDy=0;" edge="1" parent="WIyWlLk6GJQsqaUBKTNV-1" source="WR40mjgjieXG-nKHjIMm-42">
          <mxGeometry relative="1" as="geometry">
            <mxPoint x="510" y="355" as="targetPoint" />
            <Array as="points">
              <mxPoint x="1350" y="325" />
              <mxPoint x="510" y="325" />
            </Array>
          </mxGeometry>
        </mxCell>
        <mxCell id="WR40mjgjieXG-nKHjIMm-42" value="&lt;p style=&quot;line-height: 50%;&quot;&gt;&lt;font style=&quot;font-size: 6px;&quot;&gt;&lt;font face=&quot;Verdana&quot;&gt;00000111&lt;br&gt;00000100&lt;br&gt;00000100&lt;br&gt;00011100&lt;br&gt;00010000&lt;br&gt;00000000&lt;br&gt;00000000&lt;br&gt;00000000&lt;/font&gt;&lt;br&gt;&lt;/font&gt;&lt;/p&gt;" style="whiteSpace=wrap;html=1;aspect=fixed;" vertex="1" parent="WIyWlLk6GJQsqaUBKTNV-1">
          <mxGeometry x="1310" y="355" width="80" height="80" as="geometry" />
        </mxCell>
        <mxCell id="WR40mjgjieXG-nKHjIMm-62" value="" style="edgeStyle=orthogonalEdgeStyle;rounded=0;orthogonalLoop=1;jettySize=auto;html=1;" edge="1" parent="WIyWlLk6GJQsqaUBKTNV-1" source="WR40mjgjieXG-nKHjIMm-43" target="WR40mjgjieXG-nKHjIMm-44">
          <mxGeometry relative="1" as="geometry" />
        </mxCell>
        <mxCell id="WR40mjgjieXG-nKHjIMm-86" style="edgeStyle=orthogonalEdgeStyle;rounded=0;orthogonalLoop=1;jettySize=auto;html=1;exitX=0;exitY=0.5;exitDx=0;exitDy=0;entryX=0.5;entryY=1;entryDx=0;entryDy=0;" edge="1" parent="WIyWlLk6GJQsqaUBKTNV-1" source="WR40mjgjieXG-nKHjIMm-43" target="WR40mjgjieXG-nKHjIMm-35">
          <mxGeometry relative="1" as="geometry" />
        </mxCell>
        <mxCell id="WR40mjgjieXG-nKHjIMm-43" value="&lt;p style=&quot;line-height: 50%;&quot;&gt;&lt;font style=&quot;font-size: 6px;&quot;&gt;&lt;font face=&quot;Verdana&quot;&gt;00000111&lt;br&gt;00000100&lt;br&gt;00000100&lt;br&gt;00011100&lt;br&gt;00000000&lt;br&gt;00000000&lt;br&gt;00000000&lt;br&gt;00000000&lt;/font&gt;&lt;br&gt;&lt;/font&gt;&lt;/p&gt;" style="whiteSpace=wrap;html=1;aspect=fixed;" vertex="1" parent="WIyWlLk6GJQsqaUBKTNV-1">
          <mxGeometry x="1310" y="465" width="80" height="80" as="geometry" />
        </mxCell>
        <mxCell id="WR40mjgjieXG-nKHjIMm-63" value="" style="edgeStyle=orthogonalEdgeStyle;rounded=0;orthogonalLoop=1;jettySize=auto;html=1;" edge="1" parent="WIyWlLk6GJQsqaUBKTNV-1" source="WR40mjgjieXG-nKHjIMm-44" target="WR40mjgjieXG-nKHjIMm-45">
          <mxGeometry relative="1" as="geometry" />
        </mxCell>
        <mxCell id="WR40mjgjieXG-nKHjIMm-85" style="edgeStyle=orthogonalEdgeStyle;rounded=0;orthogonalLoop=1;jettySize=auto;html=1;exitX=0;exitY=0.5;exitDx=0;exitDy=0;entryX=0.5;entryY=1;entryDx=0;entryDy=0;" edge="1" parent="WIyWlLk6GJQsqaUBKTNV-1" source="WR40mjgjieXG-nKHjIMm-44" target="WR40mjgjieXG-nKHjIMm-35">
          <mxGeometry relative="1" as="geometry" />
        </mxCell>
        <mxCell id="WR40mjgjieXG-nKHjIMm-44" value="&lt;p style=&quot;line-height: 50%;&quot;&gt;&lt;font style=&quot;font-size: 6px;&quot;&gt;&lt;font face=&quot;Verdana&quot;&gt;00000111&lt;br&gt;00000100&lt;br&gt;00000100&lt;br&gt;00001100&lt;br&gt;00000000&lt;br&gt;00000000&lt;br&gt;00000000&lt;br&gt;00000000&lt;/font&gt;&lt;br&gt;&lt;/font&gt;&lt;/p&gt;" style="whiteSpace=wrap;html=1;aspect=fixed;" vertex="1" parent="WIyWlLk6GJQsqaUBKTNV-1">
          <mxGeometry x="1310" y="575" width="80" height="80" as="geometry" />
        </mxCell>
        <mxCell id="WR40mjgjieXG-nKHjIMm-64" value="" style="edgeStyle=orthogonalEdgeStyle;rounded=0;orthogonalLoop=1;jettySize=auto;html=1;" edge="1" parent="WIyWlLk6GJQsqaUBKTNV-1" source="WR40mjgjieXG-nKHjIMm-45" target="WR40mjgjieXG-nKHjIMm-46">
          <mxGeometry relative="1" as="geometry" />
        </mxCell>
        <mxCell id="WR40mjgjieXG-nKHjIMm-84" style="edgeStyle=orthogonalEdgeStyle;rounded=0;orthogonalLoop=1;jettySize=auto;html=1;exitX=0;exitY=0.5;exitDx=0;exitDy=0;" edge="1" parent="WIyWlLk6GJQsqaUBKTNV-1" source="WR40mjgjieXG-nKHjIMm-45">
          <mxGeometry relative="1" as="geometry">
            <mxPoint x="510" y="435" as="targetPoint" />
          </mxGeometry>
        </mxCell>
        <mxCell id="WR40mjgjieXG-nKHjIMm-45" value="&lt;p style=&quot;line-height: 50%;&quot;&gt;&lt;font style=&quot;font-size: 6px;&quot;&gt;&lt;font face=&quot;Verdana&quot;&gt;00000111&lt;br&gt;00000100&lt;br&gt;00000100&lt;br&gt;00000100&lt;br&gt;00000000&lt;br&gt;00000000&lt;br&gt;00000000&lt;br&gt;00000000&lt;/font&gt;&lt;br&gt;&lt;/font&gt;&lt;/p&gt;" style="whiteSpace=wrap;html=1;aspect=fixed;" vertex="1" parent="WIyWlLk6GJQsqaUBKTNV-1">
          <mxGeometry x="1310" y="685" width="80" height="80" as="geometry" />
        </mxCell>
        <mxCell id="WR40mjgjieXG-nKHjIMm-65" value="" style="edgeStyle=orthogonalEdgeStyle;rounded=0;orthogonalLoop=1;jettySize=auto;html=1;" edge="1" parent="WIyWlLk6GJQsqaUBKTNV-1" source="WR40mjgjieXG-nKHjIMm-46" target="WR40mjgjieXG-nKHjIMm-52">
          <mxGeometry relative="1" as="geometry" />
        </mxCell>
        <mxCell id="WR40mjgjieXG-nKHjIMm-124" style="edgeStyle=orthogonalEdgeStyle;rounded=0;orthogonalLoop=1;jettySize=auto;html=1;exitX=1;exitY=0.5;exitDx=0;exitDy=0;entryX=0.5;entryY=0;entryDx=0;entryDy=0;" edge="1" parent="WIyWlLk6GJQsqaUBKTNV-1" source="WR40mjgjieXG-nKHjIMm-46" target="WR40mjgjieXG-nKHjIMm-35">
          <mxGeometry relative="1" as="geometry">
            <Array as="points">
              <mxPoint x="1430" y="835" />
              <mxPoint x="1430" y="325" />
              <mxPoint x="510" y="325" />
            </Array>
          </mxGeometry>
        </mxCell>
        <mxCell id="WR40mjgjieXG-nKHjIMm-46" value="&lt;p style=&quot;line-height: 50%;&quot;&gt;&lt;font style=&quot;font-size: 6px;&quot;&gt;&lt;font face=&quot;Verdana&quot;&gt;00000111&lt;br&gt;00000100&lt;br&gt;00000100&lt;br&gt;00000000&lt;br&gt;00000000&lt;br&gt;00000000&lt;br&gt;00000000&lt;br&gt;00000000&lt;/font&gt;&lt;br&gt;&lt;/font&gt;&lt;/p&gt;" style="whiteSpace=wrap;html=1;aspect=fixed;" vertex="1" parent="WIyWlLk6GJQsqaUBKTNV-1">
          <mxGeometry x="1310" y="795" width="80" height="80" as="geometry" />
        </mxCell>
        <mxCell id="WR40mjgjieXG-nKHjIMm-47" value="&lt;p style=&quot;line-height: 50%;&quot;&gt;&lt;font style=&quot;font-size: 6px;&quot;&gt;&lt;font face=&quot;Verdana&quot;&gt;00011000&lt;br&gt;00100100&lt;br&gt;01000010&lt;br&gt;11111111&lt;br&gt;01000010&lt;br&gt;01000010&lt;br&gt;01011010&lt;br&gt;00011010&lt;/font&gt;&lt;br&gt;&lt;/font&gt;&lt;/p&gt;" style="whiteSpace=wrap;html=1;aspect=fixed;" vertex="1" parent="WIyWlLk6GJQsqaUBKTNV-1">
          <mxGeometry x="710" y="795" width="80" height="80" as="geometry" />
        </mxCell>
        <mxCell id="WR40mjgjieXG-nKHjIMm-69" value="" style="edgeStyle=orthogonalEdgeStyle;rounded=0;orthogonalLoop=1;jettySize=auto;html=1;" edge="1" parent="WIyWlLk6GJQsqaUBKTNV-1" source="WR40mjgjieXG-nKHjIMm-49">
          <mxGeometry relative="1" as="geometry">
            <mxPoint x="790" y="835" as="targetPoint" />
          </mxGeometry>
        </mxCell>
        <mxCell id="WR40mjgjieXG-nKHjIMm-80" style="edgeStyle=orthogonalEdgeStyle;rounded=0;orthogonalLoop=1;jettySize=auto;html=1;" edge="1" parent="WIyWlLk6GJQsqaUBKTNV-1" source="WR40mjgjieXG-nKHjIMm-49">
          <mxGeometry relative="1" as="geometry">
            <mxPoint x="510" y="435" as="targetPoint" />
            <Array as="points">
              <mxPoint x="870" y="675" />
              <mxPoint x="510" y="675" />
            </Array>
          </mxGeometry>
        </mxCell>
        <mxCell id="WR40mjgjieXG-nKHjIMm-49" value="&lt;p style=&quot;line-height: 50%;&quot;&gt;&lt;font style=&quot;font-size: 6px;&quot;&gt;&lt;font face=&quot;Verdana&quot;&gt;00000001&lt;br&gt;00000000&lt;br&gt;00000000&lt;br&gt;00000000&lt;br&gt;00000000&lt;br&gt;00000000&lt;br&gt;00000000&lt;br&gt;00000000&lt;/font&gt;&lt;br&gt;&lt;/font&gt;&lt;/p&gt;" style="whiteSpace=wrap;html=1;aspect=fixed;" vertex="1" parent="WIyWlLk6GJQsqaUBKTNV-1">
          <mxGeometry x="830" y="795" width="80" height="80" as="geometry" />
        </mxCell>
        <mxCell id="WR40mjgjieXG-nKHjIMm-68" value="" style="edgeStyle=orthogonalEdgeStyle;rounded=0;orthogonalLoop=1;jettySize=auto;html=1;" edge="1" parent="WIyWlLk6GJQsqaUBKTNV-1" source="WR40mjgjieXG-nKHjIMm-50" target="WR40mjgjieXG-nKHjIMm-49">
          <mxGeometry relative="1" as="geometry" />
        </mxCell>
        <mxCell id="WR40mjgjieXG-nKHjIMm-81" style="edgeStyle=orthogonalEdgeStyle;rounded=0;orthogonalLoop=1;jettySize=auto;html=1;exitX=0.5;exitY=0;exitDx=0;exitDy=0;entryX=0.5;entryY=1;entryDx=0;entryDy=0;" edge="1" parent="WIyWlLk6GJQsqaUBKTNV-1" source="WR40mjgjieXG-nKHjIMm-50" target="WR40mjgjieXG-nKHjIMm-35">
          <mxGeometry relative="1" as="geometry">
            <Array as="points">
              <mxPoint x="990" y="675" />
              <mxPoint x="510" y="675" />
            </Array>
          </mxGeometry>
        </mxCell>
        <mxCell id="WR40mjgjieXG-nKHjIMm-50" value="&lt;p style=&quot;line-height: 50%;&quot;&gt;&lt;font style=&quot;font-size: 6px;&quot;&gt;&lt;font face=&quot;Verdana&quot;&gt;00000011&lt;br&gt;00000000&lt;br&gt;00000000&lt;br&gt;00000000&lt;br&gt;00000000&lt;br&gt;00000000&lt;br&gt;00000000&lt;br&gt;00000000&lt;/font&gt;&lt;br&gt;&lt;/font&gt;&lt;/p&gt;" style="whiteSpace=wrap;html=1;aspect=fixed;" vertex="1" parent="WIyWlLk6GJQsqaUBKTNV-1">
          <mxGeometry x="950" y="795" width="80" height="80" as="geometry" />
        </mxCell>
        <mxCell id="WR40mjgjieXG-nKHjIMm-67" value="" style="edgeStyle=orthogonalEdgeStyle;rounded=0;orthogonalLoop=1;jettySize=auto;html=1;" edge="1" parent="WIyWlLk6GJQsqaUBKTNV-1" source="WR40mjgjieXG-nKHjIMm-51" target="WR40mjgjieXG-nKHjIMm-50">
          <mxGeometry relative="1" as="geometry" />
        </mxCell>
        <mxCell id="WR40mjgjieXG-nKHjIMm-82" style="edgeStyle=orthogonalEdgeStyle;rounded=0;orthogonalLoop=1;jettySize=auto;html=1;exitX=0.5;exitY=0;exitDx=0;exitDy=0;entryX=0.5;entryY=1;entryDx=0;entryDy=0;" edge="1" parent="WIyWlLk6GJQsqaUBKTNV-1" source="WR40mjgjieXG-nKHjIMm-51" target="WR40mjgjieXG-nKHjIMm-35">
          <mxGeometry relative="1" as="geometry">
            <Array as="points">
              <mxPoint x="1110" y="675" />
              <mxPoint x="510" y="675" />
            </Array>
          </mxGeometry>
        </mxCell>
        <mxCell id="WR40mjgjieXG-nKHjIMm-51" value="&lt;p style=&quot;line-height: 50%;&quot;&gt;&lt;font style=&quot;font-size: 6px;&quot;&gt;&lt;font face=&quot;Verdana&quot;&gt;00000111&lt;br&gt;00000000&lt;br&gt;00000000&lt;br&gt;00000000&lt;br&gt;00000000&lt;br&gt;00000000&lt;br&gt;00000000&lt;br&gt;00000000&lt;/font&gt;&lt;br&gt;&lt;/font&gt;&lt;/p&gt;" style="whiteSpace=wrap;html=1;aspect=fixed;" vertex="1" parent="WIyWlLk6GJQsqaUBKTNV-1">
          <mxGeometry x="1070" y="795" width="80" height="80" as="geometry" />
        </mxCell>
        <mxCell id="WR40mjgjieXG-nKHjIMm-66" value="" style="edgeStyle=orthogonalEdgeStyle;rounded=0;orthogonalLoop=1;jettySize=auto;html=1;" edge="1" parent="WIyWlLk6GJQsqaUBKTNV-1" source="WR40mjgjieXG-nKHjIMm-52" target="WR40mjgjieXG-nKHjIMm-51">
          <mxGeometry relative="1" as="geometry" />
        </mxCell>
        <mxCell id="WR40mjgjieXG-nKHjIMm-83" style="edgeStyle=orthogonalEdgeStyle;rounded=0;orthogonalLoop=1;jettySize=auto;html=1;exitX=0.5;exitY=0;exitDx=0;exitDy=0;entryX=0.5;entryY=1;entryDx=0;entryDy=0;" edge="1" parent="WIyWlLk6GJQsqaUBKTNV-1" source="WR40mjgjieXG-nKHjIMm-52" target="WR40mjgjieXG-nKHjIMm-35">
          <mxGeometry relative="1" as="geometry">
            <Array as="points">
              <mxPoint x="1230" y="675" />
              <mxPoint x="510" y="675" />
            </Array>
          </mxGeometry>
        </mxCell>
        <mxCell id="WR40mjgjieXG-nKHjIMm-52" value="&lt;p style=&quot;line-height: 50%;&quot;&gt;&lt;font style=&quot;font-size: 6px;&quot;&gt;&lt;font face=&quot;Verdana&quot;&gt;00000111&lt;br&gt;00000100&lt;br&gt;00000000&lt;br&gt;00000000&lt;br&gt;00000000&lt;br&gt;00000000&lt;br&gt;00000000&lt;br&gt;00000000&lt;/font&gt;&lt;br&gt;&lt;/font&gt;&lt;/p&gt;" style="whiteSpace=wrap;html=1;aspect=fixed;" vertex="1" parent="WIyWlLk6GJQsqaUBKTNV-1">
          <mxGeometry x="1190" y="795" width="80" height="80" as="geometry" />
        </mxCell>
        <mxCell id="WR40mjgjieXG-nKHjIMm-71" style="edgeStyle=orthogonalEdgeStyle;rounded=0;orthogonalLoop=1;jettySize=auto;html=1;exitX=0.5;exitY=0;exitDx=0;exitDy=0;entryX=0.5;entryY=0;entryDx=0;entryDy=0;" edge="1" parent="WIyWlLk6GJQsqaUBKTNV-1" source="WR40mjgjieXG-nKHjIMm-36" target="WR40mjgjieXG-nKHjIMm-35">
          <mxGeometry relative="1" as="geometry">
            <mxPoint x="506" y="357" as="targetPoint" />
            <Array as="points">
              <mxPoint x="630" y="325" />
              <mxPoint x="510" y="325" />
            </Array>
          </mxGeometry>
        </mxCell>
        <mxCell id="WR40mjgjieXG-nKHjIMm-93" value="&lt;p style=&quot;line-height: 130%;&quot;&gt;&lt;font face=&quot;Verdana&quot; style=&quot;font-size: 8px;&quot;&gt;10&lt;/font&gt;&lt;/p&gt;" style="rounded=1;whiteSpace=wrap;html=1;align=center;arcSize=0;" vertex="1" parent="WIyWlLk6GJQsqaUBKTNV-1">
          <mxGeometry x="800" y="375" width="20" height="10" as="geometry" />
        </mxCell>
        <mxCell id="WR40mjgjieXG-nKHjIMm-94" value="&lt;p style=&quot;line-height: 130%;&quot;&gt;&lt;font face=&quot;Verdana&quot; style=&quot;font-size: 8px;&quot;&gt;10&lt;/font&gt;&lt;/p&gt;" style="rounded=1;whiteSpace=wrap;html=1;align=center;arcSize=0;" vertex="1" parent="WIyWlLk6GJQsqaUBKTNV-1">
          <mxGeometry x="920" y="375" width="20" height="10" as="geometry" />
        </mxCell>
        <mxCell id="WR40mjgjieXG-nKHjIMm-95" value="&lt;p style=&quot;line-height: 130%;&quot;&gt;&lt;font face=&quot;Verdana&quot; style=&quot;font-size: 8px;&quot;&gt;10&lt;/font&gt;&lt;/p&gt;" style="rounded=1;whiteSpace=wrap;html=1;align=center;arcSize=0;" vertex="1" parent="WIyWlLk6GJQsqaUBKTNV-1">
          <mxGeometry x="1040" y="375" width="20" height="10" as="geometry" />
        </mxCell>
        <mxCell id="WR40mjgjieXG-nKHjIMm-97" value="&lt;p style=&quot;line-height: 130%;&quot;&gt;&lt;font face=&quot;Verdana&quot; style=&quot;font-size: 8px;&quot;&gt;10&lt;/font&gt;&lt;/p&gt;" style="rounded=1;whiteSpace=wrap;html=1;align=center;arcSize=0;" vertex="1" parent="WIyWlLk6GJQsqaUBKTNV-1">
          <mxGeometry x="1280" y="375" width="20" height="10" as="geometry" />
        </mxCell>
        <mxCell id="WR40mjgjieXG-nKHjIMm-98" value="&lt;p style=&quot;line-height: 130%;&quot;&gt;&lt;font face=&quot;Verdana&quot; style=&quot;font-size: 8px;&quot;&gt;10&lt;/font&gt;&lt;/p&gt;" style="rounded=1;whiteSpace=wrap;html=1;align=center;arcSize=0;" vertex="1" parent="WIyWlLk6GJQsqaUBKTNV-1">
          <mxGeometry x="1360" y="445" width="20" height="10" as="geometry" />
        </mxCell>
        <mxCell id="WR40mjgjieXG-nKHjIMm-100" value="&lt;p style=&quot;line-height: 130%;&quot;&gt;&lt;font face=&quot;Verdana&quot; style=&quot;font-size: 8px;&quot;&gt;00&lt;/font&gt;&lt;/p&gt;" style="rounded=1;whiteSpace=wrap;html=1;align=center;arcSize=0;" vertex="1" parent="WIyWlLk6GJQsqaUBKTNV-1">
          <mxGeometry x="1160" y="375" width="20" height="10" as="geometry" />
        </mxCell>
        <mxCell id="WR40mjgjieXG-nKHjIMm-101" value="&lt;p style=&quot;line-height: 130%;&quot;&gt;&lt;font face=&quot;Verdana&quot; style=&quot;font-size: 8px;&quot;&gt;00&lt;/font&gt;&lt;/p&gt;" style="rounded=1;whiteSpace=wrap;html=1;align=center;arcSize=0;" vertex="1" parent="WIyWlLk6GJQsqaUBKTNV-1">
          <mxGeometry x="680" y="375" width="20" height="10" as="geometry" />
        </mxCell>
        <mxCell id="WR40mjgjieXG-nKHjIMm-104" value="&lt;p style=&quot;line-height: 130%;&quot;&gt;&lt;font face=&quot;Verdana&quot; style=&quot;font-size: 8px;&quot;&gt;00&lt;/font&gt;&lt;/p&gt;" style="rounded=1;whiteSpace=wrap;html=1;align=center;arcSize=0;" vertex="1" parent="WIyWlLk6GJQsqaUBKTNV-1">
          <mxGeometry x="560" y="375" width="20" height="10" as="geometry" />
        </mxCell>
        <mxCell id="WR40mjgjieXG-nKHjIMm-105" value="&lt;p style=&quot;line-height: 130%;&quot;&gt;&lt;font face=&quot;Verdana&quot; style=&quot;font-size: 8px;&quot;&gt;00&lt;/font&gt;&lt;/p&gt;" style="rounded=1;whiteSpace=wrap;html=1;align=center;arcSize=0;" vertex="1" parent="WIyWlLk6GJQsqaUBKTNV-1">
          <mxGeometry x="1360" y="555" width="20" height="10" as="geometry" />
        </mxCell>
        <mxCell id="WR40mjgjieXG-nKHjIMm-106" value="&lt;p style=&quot;line-height: 130%;&quot;&gt;&lt;font face=&quot;Verdana&quot; style=&quot;font-size: 8px;&quot;&gt;10&lt;/font&gt;&lt;/p&gt;" style="rounded=1;whiteSpace=wrap;html=1;align=center;arcSize=0;" vertex="1" parent="WIyWlLk6GJQsqaUBKTNV-1">
          <mxGeometry x="1360" y="665" width="20" height="10" as="geometry" />
        </mxCell>
        <mxCell id="WR40mjgjieXG-nKHjIMm-107" value="&lt;p style=&quot;line-height: 130%;&quot;&gt;&lt;font face=&quot;Verdana&quot; style=&quot;font-size: 8px;&quot;&gt;10&lt;/font&gt;&lt;/p&gt;" style="rounded=1;whiteSpace=wrap;html=1;align=center;arcSize=0;" vertex="1" parent="WIyWlLk6GJQsqaUBKTNV-1">
          <mxGeometry x="1360" y="775" width="20" height="10" as="geometry" />
        </mxCell>
        <mxCell id="WR40mjgjieXG-nKHjIMm-108" value="&lt;p style=&quot;line-height: 130%;&quot;&gt;&lt;font face=&quot;Verdana&quot; style=&quot;font-size: 8px;&quot;&gt;00&lt;/font&gt;&lt;/p&gt;" style="rounded=1;whiteSpace=wrap;html=1;align=center;arcSize=0;" vertex="1" parent="WIyWlLk6GJQsqaUBKTNV-1">
          <mxGeometry x="1280" y="815" width="20" height="10" as="geometry" />
        </mxCell>
        <mxCell id="WR40mjgjieXG-nKHjIMm-109" value="&lt;p style=&quot;line-height: 130%;&quot;&gt;&lt;font face=&quot;Verdana&quot; style=&quot;font-size: 8px;&quot;&gt;00&lt;/font&gt;&lt;/p&gt;" style="rounded=1;whiteSpace=wrap;html=1;align=center;arcSize=0;" vertex="1" parent="WIyWlLk6GJQsqaUBKTNV-1">
          <mxGeometry x="1160" y="815" width="20" height="10" as="geometry" />
        </mxCell>
        <mxCell id="WR40mjgjieXG-nKHjIMm-110" value="&lt;p style=&quot;line-height: 130%;&quot;&gt;&lt;font face=&quot;Verdana&quot; style=&quot;font-size: 8px;&quot;&gt;00&lt;/font&gt;&lt;/p&gt;" style="rounded=1;whiteSpace=wrap;html=1;align=center;arcSize=0;" vertex="1" parent="WIyWlLk6GJQsqaUBKTNV-1">
          <mxGeometry x="1040" y="815" width="20" height="10" as="geometry" />
        </mxCell>
        <mxCell id="WR40mjgjieXG-nKHjIMm-111" value="&lt;p style=&quot;line-height: 130%;&quot;&gt;&lt;font face=&quot;Verdana&quot; style=&quot;font-size: 8px;&quot;&gt;10&lt;/font&gt;&lt;/p&gt;" style="rounded=1;whiteSpace=wrap;html=1;align=center;arcSize=0;" vertex="1" parent="WIyWlLk6GJQsqaUBKTNV-1">
          <mxGeometry x="920" y="815" width="20" height="10" as="geometry" />
        </mxCell>
        <mxCell id="WR40mjgjieXG-nKHjIMm-112" value="&lt;p style=&quot;line-height: 130%;&quot;&gt;&lt;font face=&quot;Verdana&quot; style=&quot;font-size: 8px;&quot;&gt;10&lt;/font&gt;&lt;/p&gt;" style="rounded=1;whiteSpace=wrap;html=1;align=center;arcSize=0;" vertex="1" parent="WIyWlLk6GJQsqaUBKTNV-1">
          <mxGeometry x="800" y="815" width="20" height="10" as="geometry" />
        </mxCell>
        <mxCell id="WR40mjgjieXG-nKHjIMm-113" value="&lt;p style=&quot;line-height: 130%;&quot;&gt;&lt;font face=&quot;Verdana&quot; style=&quot;font-size: 8px;&quot;&gt;01, 10, 11&lt;/font&gt;&lt;/p&gt;" style="rounded=1;whiteSpace=wrap;html=1;align=center;arcSize=0;" vertex="1" parent="WIyWlLk6GJQsqaUBKTNV-1">
          <mxGeometry x="605" y="335" width="50" height="10" as="geometry" />
        </mxCell>
        <mxCell id="WR40mjgjieXG-nKHjIMm-115" value="&lt;p style=&quot;line-height: 130%;&quot;&gt;&lt;font face=&quot;Verdana&quot; style=&quot;font-size: 8px;&quot;&gt;01, 10, 11&lt;/font&gt;&lt;/p&gt;" style="rounded=1;whiteSpace=wrap;html=1;align=center;arcSize=0;" vertex="1" parent="WIyWlLk6GJQsqaUBKTNV-1">
          <mxGeometry x="1085" y="775" width="50" height="10" as="geometry" />
        </mxCell>
        <mxCell id="WR40mjgjieXG-nKHjIMm-116" value="&lt;p style=&quot;line-height: 130%;&quot;&gt;&lt;font face=&quot;Verdana&quot; style=&quot;font-size: 8px;&quot;&gt;01, 10, 11&lt;/font&gt;&lt;/p&gt;" style="rounded=1;whiteSpace=wrap;html=1;align=center;arcSize=0;" vertex="1" parent="WIyWlLk6GJQsqaUBKTNV-1">
          <mxGeometry x="1205" y="775" width="50" height="10" as="geometry" />
        </mxCell>
        <mxCell id="WR40mjgjieXG-nKHjIMm-117" value="&lt;p style=&quot;line-height: 130%;&quot;&gt;&lt;font face=&quot;Verdana&quot; style=&quot;font-size: 8px;&quot;&gt;01, 10, 11&lt;/font&gt;&lt;/p&gt;" style="rounded=1;whiteSpace=wrap;html=1;align=center;arcSize=0;" vertex="1" parent="WIyWlLk6GJQsqaUBKTNV-1">
          <mxGeometry x="1250" y="485" width="50" height="10" as="geometry" />
        </mxCell>
        <mxCell id="WR40mjgjieXG-nKHjIMm-118" value="&lt;p style=&quot;line-height: 130%;&quot;&gt;&lt;font face=&quot;Verdana&quot; style=&quot;font-size: 8px;&quot;&gt;01, 10, 11&lt;/font&gt;&lt;/p&gt;" style="rounded=1;whiteSpace=wrap;html=1;align=center;arcSize=0;" vertex="1" parent="WIyWlLk6GJQsqaUBKTNV-1">
          <mxGeometry x="1085" y="335" width="50" height="10" as="geometry" />
        </mxCell>
        <mxCell id="WR40mjgjieXG-nKHjIMm-119" value="&lt;p style=&quot;line-height: 130%;&quot;&gt;&lt;font face=&quot;Verdana&quot; style=&quot;font-size: 8px;&quot;&gt;01, 10, 11&lt;/font&gt;&lt;/p&gt;" style="rounded=1;whiteSpace=wrap;html=1;align=center;arcSize=0;" vertex="1" parent="WIyWlLk6GJQsqaUBKTNV-1">
          <mxGeometry x="1400" y="845" width="50" height="10" as="geometry" />
        </mxCell>
        <mxCell id="WR40mjgjieXG-nKHjIMm-131" value="&lt;p style=&quot;line-height: 130%;&quot;&gt;&lt;font face=&quot;Verdana&quot; style=&quot;font-size: 8px;&quot;&gt;00, 01, 11&lt;/font&gt;&lt;/p&gt;" style="rounded=1;whiteSpace=wrap;html=1;align=center;arcSize=0;" vertex="1" parent="WIyWlLk6GJQsqaUBKTNV-1">
          <mxGeometry x="725" y="335" width="50" height="10" as="geometry" />
        </mxCell>
        <mxCell id="WR40mjgjieXG-nKHjIMm-132" value="&lt;p style=&quot;line-height: 130%;&quot;&gt;&lt;font face=&quot;Verdana&quot; style=&quot;font-size: 8px;&quot;&gt;00, 01, 11&lt;/font&gt;&lt;/p&gt;" style="rounded=1;whiteSpace=wrap;html=1;align=center;arcSize=0;" vertex="1" parent="WIyWlLk6GJQsqaUBKTNV-1">
          <mxGeometry x="1250" y="705" width="50" height="10" as="geometry" />
        </mxCell>
        <mxCell id="WR40mjgjieXG-nKHjIMm-133" value="&lt;p style=&quot;line-height: 130%;&quot;&gt;&lt;font face=&quot;Verdana&quot; style=&quot;font-size: 8px;&quot;&gt;00, 01, 11&lt;/font&gt;&lt;/p&gt;" style="rounded=1;whiteSpace=wrap;html=1;align=center;arcSize=0;" vertex="1" parent="WIyWlLk6GJQsqaUBKTNV-1">
          <mxGeometry x="1250" y="595" width="50" height="10" as="geometry" />
        </mxCell>
        <mxCell id="WR40mjgjieXG-nKHjIMm-134" value="&lt;p style=&quot;line-height: 130%;&quot;&gt;&lt;font face=&quot;Verdana&quot; style=&quot;font-size: 8px;&quot;&gt;00, 01, 11&lt;/font&gt;&lt;/p&gt;" style="rounded=1;whiteSpace=wrap;html=1;align=center;arcSize=0;" vertex="1" parent="WIyWlLk6GJQsqaUBKTNV-1">
          <mxGeometry x="1325" y="335" width="50" height="10" as="geometry" />
        </mxCell>
        <mxCell id="WR40mjgjieXG-nKHjIMm-135" value="&lt;p style=&quot;line-height: 130%;&quot;&gt;&lt;font face=&quot;Verdana&quot; style=&quot;font-size: 8px;&quot;&gt;00, 01, 11&lt;/font&gt;&lt;/p&gt;" style="rounded=1;whiteSpace=wrap;html=1;align=center;arcSize=0;" vertex="1" parent="WIyWlLk6GJQsqaUBKTNV-1">
          <mxGeometry x="1205" y="335" width="50" height="10" as="geometry" />
        </mxCell>
        <mxCell id="WR40mjgjieXG-nKHjIMm-136" value="&lt;p style=&quot;line-height: 130%;&quot;&gt;&lt;font face=&quot;Verdana&quot; style=&quot;font-size: 8px;&quot;&gt;00, 01, 11&lt;/font&gt;&lt;/p&gt;" style="rounded=1;whiteSpace=wrap;html=1;align=center;arcSize=0;" vertex="1" parent="WIyWlLk6GJQsqaUBKTNV-1">
          <mxGeometry x="965" y="335" width="50" height="10" as="geometry" />
        </mxCell>
        <mxCell id="WR40mjgjieXG-nKHjIMm-137" value="&lt;p style=&quot;line-height: 130%;&quot;&gt;&lt;font face=&quot;Verdana&quot; style=&quot;font-size: 8px;&quot;&gt;00, 01, 11&lt;/font&gt;&lt;/p&gt;" style="rounded=1;whiteSpace=wrap;html=1;align=center;arcSize=0;" vertex="1" parent="WIyWlLk6GJQsqaUBKTNV-1">
          <mxGeometry x="845" y="335" width="50" height="10" as="geometry" />
        </mxCell>
        <mxCell id="WR40mjgjieXG-nKHjIMm-139" value="&lt;p style=&quot;line-height: 130%;&quot;&gt;&lt;font face=&quot;Verdana&quot; style=&quot;font-size: 8px;&quot;&gt;00, 01, 11&lt;/font&gt;&lt;/p&gt;" style="rounded=1;whiteSpace=wrap;html=1;align=center;arcSize=0;" vertex="1" parent="WIyWlLk6GJQsqaUBKTNV-1">
          <mxGeometry x="845" y="775" width="50" height="10" as="geometry" />
        </mxCell>
        <mxCell id="WR40mjgjieXG-nKHjIMm-140" value="&lt;p style=&quot;line-height: 130%;&quot;&gt;&lt;font face=&quot;Verdana&quot; style=&quot;font-size: 8px;&quot;&gt;00, 01, 11&lt;/font&gt;&lt;/p&gt;" style="rounded=1;whiteSpace=wrap;html=1;align=center;arcSize=0;" vertex="1" parent="WIyWlLk6GJQsqaUBKTNV-1">
          <mxGeometry x="965" y="775" width="50" height="10" as="geometry" />
        </mxCell>
      </root>
    </mxGraphModel>
  </diagram>
</mxfile>
